<?xml version="1.0" encoding="UTF-8" standalone="no"?>
<!-- Generator: Adobe Illustrator 23.0.1, SVG Export Plug-In . SVG Version: 6.00 Build 0)  -->

<svg
   xmlns:ns="&amp;ns_sfw;"
   xmlns:dc="http://purl.org/dc/elements/1.1/"
   xmlns:cc="http://creativecommons.org/ns#"
   xmlns:rdf="http://www.w3.org/1999/02/22-rdf-syntax-ns#"
   xmlns:svg="http://www.w3.org/2000/svg"
   xmlns="http://www.w3.org/2000/svg"
   xmlns:sodipodi="http://sodipodi.sourceforge.net/DTD/sodipodi-0.dtd"
   xmlns:inkscape="http://www.inkscape.org/namespaces/inkscape"
   version="1.1"
   id="Livello_1"
   x="0px"
   y="0px"
   viewBox="0 0 700 700"
   enable-background="new 0 0 2342.5 500"
   xml:space="preserve"
   sodipodi:docname="sky-sports-logo.svg"
   inkscape:version="0.92.4 (5da689c313, 2019-01-14)"
   width="700"
   height="700"
   inkscape:export-filename="C:\Users\suitedoalex\sites\sky-sports-logo-0.png"
   inkscape:export-xdpi="561.73712"
   inkscape:export-ydpi="561.73712"><defs
   id="defs45" /><sodipodi:namedview
   pagecolor="#ffffff"
   bordercolor="#666666"
   borderopacity="1"
   objecttolerance="10"
   gridtolerance="10"
   guidetolerance="10"
   inkscape:pageopacity="0"
   inkscape:pageshadow="2"
   inkscape:window-width="1600"
   inkscape:window-height="837"
   id="namedview43"
   showgrid="false"
   inkscape:zoom="0.76551667"
   inkscape:cx="434.25822"
   inkscape:cy="321.57468"
   inkscape:window-x="-8"
   inkscape:window-y="-8"
   inkscape:window-maximized="1"
   inkscape:current-layer="Livello_1" />
<metadata
   id="metadata2">
	<ns:sfw>
		<ns:slices />
		<ns:sliceSourceBounds
   bottomLeftOrigin="true"
   height="500"
   width="2342.5"
   x="100.4"
   y="-853.4" />
	</ns:sfw>
<rdf:RDF><cc:Work
     rdf:about=""><dc:format>image/svg+xml</dc:format><dc:type
       rdf:resource="http://purl.org/dc/dcmitype/StillImage" /><dc:title></dc:title></cc:Work></rdf:RDF></metadata>
<g
   id="Sky_Sports_NFL_PRIMARY_RGB"
   transform="matrix(0.24831289,0,0,0.24831289,108.81369,399.67499)"
   inkscape:export-filename="C:\Users\suitedoalex\sites\sky-sports-logo-4.png"
   inkscape:export-xdpi="66.013664"
   inkscape:export-ydpi="66.013664">
	<g
   id="Sky_Sports_NFL_PRIMARY_RGB_1_"
   transform="translate(200,450)">
		
			<linearGradient
   id="Sky_x5F_Logo_1_"
   gradientUnits="userSpaceOnUse"
   x1="-1151.917"
   y1="-775.01849"
   x2="-1151.917"
   y2="-779.87292"
   gradientTransform="matrix(149.68,0,0,-91.1576,172382.22,-71520.047)">
			<stop
   offset="0"
   style="stop-color:#002A91"
   id="stop4" />
			<stop
   offset="0.8"
   style="stop-color:#002672"
   id="stop6" />
		</linearGradient>
		<path
   id="Sky_x5F_Logo_2_"
   d="m 101.6,-435.8 c 5.9,2.9 18,6.7 33.5,7.1 26.4,0.4 40.6,-9.6 51,-32.9 l 140.6,-311.7 c -5.9,-2.9 -18.8,-6.7 -29.3,-6.7 -18,-0.4 -42.2,3.3 -57.7,40 L 194,-633.3 104.9,-777.9 c -5.9,-1.7 -20.1,-4.2 -30.1,-4.2 -31.8,0 -49.4,11.7 -67.3,31.2 l -87,94.2 69.9,109.2 c 13,20 29.7,30 57.3,30 18,0 33,-4.2 40.2,-7.5 L 3.7,-650.4 63.1,-713.3 161,-560.8 Z m -184.5,-118 c 0,22.9 -9.2,36.2 -54.4,36.2 -5.9,0 -11.3,-0.4 -16.3,-1.2 v -305 c 0,-23.3 7.9,-47.5 53.5,-47.5 5.9,0 11.7,0.4 17.2,1.7 z m -93.3,-46.2 c 0,42.9 -28,74.2 -85.3,80.4 -41.4,4.6 -101.6,-0.8 -130.1,-4.2 -0.8,-4.6 -1.7,-10.4 -1.7,-15 0,-37.5 20.1,-45.8 39.3,-45.8 19.7,0 51,3.3 74.5,3.3 25.5,0 33.5,-8.8 33.5,-16.7 0,-10.8 -10,-15 -30.1,-19.2 l -54.4,-10.4 c -45.2,-8.3 -69.4,-39.6 -69.4,-72.5 0,-40 28.4,-73.8 84.5,-79.6 42.2,-4.6 94.1,0.4 122.6,4.2 0.8,4.6 1.7,9.6 1.7,14.6 0,37.5 -19.7,45.4 -38.9,45.4 -14.6,0 -37.2,-2.5 -63.6,-2.5 -26.4,0 -37.2,7.1 -37.2,16.2 0,9.6 10.5,13.3 27.2,16.2 l 51.9,9.6 c 52.5,8.9 75.5,38.9 75.5,76 z"
   inkscape:connector-curvature="0"
   style="fill:url(#Sky_x5F_Logo_1_)" />
		
			<linearGradient
   id="s25_2_"
   gradientUnits="userSpaceOnUse"
   x1="-1151.793"
   y1="-784.91522"
   x2="-1151.9689"
   y2="-782.97961"
   gradientTransform="matrix(149.68,0,0,-57.7658,172382.22,-45995.145)">
			<stop
   offset="0"
   style="stop-color:#FFFFFF"
   id="stop10" />
			<stop
   offset="1"
   style="stop-color:#FFFFFF;stop-opacity:0.25"
   id="stop12" />
		</linearGradient>
		<path
   id="s25_1_"
   enable-background="new    "
   d="m 326.6,-773.3 -51.5,114.2 c -1.7,2.9 -7.1,12.9 -21.3,13.3 -3.3,0 -46.9,1.7 -46.9,1.7 -8.4,0.4 -11.3,8.3 -11.3,8.3 v 0 L 240,-740 c 15.5,-36.7 39.7,-40.4 57.7,-40 10.1,0 23,3.3 28.9,6.7 z m -134.7,136.2 -87,-140.8 c -5.9,-1.7 -20.1,-4.2 -30.1,-4.2 -31.8,0 -49.4,11.7 -67.3,31.2 l -87,94.2 7.1,10.8 c 2.9,4.2 8.8,10.8 20.5,10.4 4.2,0 46,-1.7 49.4,-1.7 10.9,-0.4 17.6,4.2 21.8,9.6 v 0 l -15.6,-23.2 59.4,-62.9 40.2,62.5 v 0 c 7.1,9.6 18,9.6 20.5,9.6 2.1,0 54.4,-2.1 56.9,-2.1 3.7,-0.1 7.9,2 11.2,6.6 z m -292,-234.1 c -45.6,0 -53.1,24.2 -53.1,47.5 v 209.2 c 0,-8.3 6.7,-17.1 17.2,-17.5 7.5,-0.4 28.9,-0.8 35.1,-1.2 7.1,-0.4 17.6,-5 18,-17.9 v -218.3 c -5.5,-1 -11.3,-1.8 -17.2,-1.8 z m -152.2,194.5 -51.9,-9.6 c -16.7,-2.9 -27.2,-6.7 -27.2,-16.2 0,-8.8 10.9,-16.2 37.2,-16.2 25.9,0 48.9,2.5 63.6,2.5 19.2,0 38.9,-7.9 38.9,-45.4 0,-5 -0.4,-9.6 -1.7,-14.6 -28.4,-3.3 -79.9,-8.8 -122.6,-4.2 -55.6,6.6 -84,40.4 -84,80.4 0,20.4 9.2,40.4 27.6,54.6 13.8,8.8 27.6,12.5 41.8,15 11.7,2.1 38.1,3.8 58.1,2.9 6.3,-0.4 51.9,-1.7 61.9,-2.1 23,-0.8 36,18.7 34.3,38.7 0,-0.4 0,-0.4 0,-0.8 0,0 0,0 0,-0.4 0.4,-2.5 0.4,-5 0.4,-7.9 -0.3,-37.1 -23.3,-67.1 -76.4,-76.7 z"
   inkscape:connector-curvature="0"
   style="opacity:0.25;fill:url(#s25_2_)" />
		
			<linearGradient
   id="Plinth_1_"
   gradientUnits="userSpaceOnUse"
   x1="-1152.5916"
   y1="-773.57703"
   x2="-1152.5916"
   y2="-778.43127"
   gradientTransform="matrix(317.3698,0,0,-103,366969.97,-80578.422)">
			<stop
   offset="0.4"
   style="stop-color:#FF0000"
   id="stop16" />
			<stop
   offset="1"
   style="stop-color:#D42321"
   id="stop18" />
		</linearGradient>
		<path
   id="Plinth_2_"
   d="M 1908.6,-900 H 435.4 c -18.4,0 -33.5,15 -33.5,33.3 v 433.3 c 0,18.3 15.1,33.3 33.5,33.3 h 1473.7 c 18.4,0 33.5,-15 33.5,-33.3 v -433.3 c -0.5,-18.3 -15.6,-33.3 -34,-33.3 z"
   inkscape:connector-curvature="0"
   style="fill:url(#Plinth_1_)" />
		
			<linearGradient
   id="p40_2_"
   gradientUnits="userSpaceOnUse"
   x1="-1152.2725"
   y1="-785.34137"
   x2="-1152.7852"
   y2="-782.73871"
   gradientTransform="matrix(317.3698,0,0,-56.4783,366969.97,-45016.895)">
			<stop
   offset="0"
   style="stop-color:#FFFFFF"
   id="stop22" />
			<stop
   offset="1"
   style="stop-color:#FFFFFF;stop-opacity:0.25"
   id="stop24" />
		</linearGradient>
		<path
   id="p40_1_"
   enable-background="new    "
   d="m 425.7,-652.1 c 0,0 1.3,0 3.3,0 99.1,-3.3 1488.3,-51.7 1488.3,-51.7 12.5,-0.4 25.1,-9.6 25.1,-25.4 v -137.5 c 0,-18.3 -15.1,-33.3 -33.5,-33.3 H 435.4 c -18.4,0 -33.5,15 -33.5,33.3 v 240.8 c 0,-2.9 0.4,-23.7 23.8,-26.2 z"
   inkscape:connector-curvature="0"
   style="opacity:0.4;fill:url(#p40_2_)" />
		<g
   id="Group_1_"
   transform="translate(184.40711,16.308333)">
			<path
   d="m 313.7,-557.1 c -2.9,-20.4 3.3,-31.2 15.5,-31.2 11.3,0 38.9,12.1 77.4,12.1 40.6,0 55.6,-14.2 55.6,-32.9 0,-13.3 -5.9,-25 -42.2,-35 l -41.8,-11.2 c -46.4,-12.1 -64.4,-35.4 -64.4,-63.8 0,-35.4 28,-66.7 91.6,-66.7 28.4,0 64,6.2 85.8,14.6 3.8,20 -2.5,30.8 -14.6,30.8 -10.9,0 -35.6,-10.4 -70.3,-10.4 -37.6,0 -51.5,12.9 -51.5,29.6 0,11.7 5.4,22.5 38.9,32.1 l 42.7,11.7 c 47.7,13.3 66.9,35.4 66.9,66.7 0,36.7 -28.4,69.6 -97.5,69.6 -31,0.2 -69.1,-7.3 -92.1,-16 z"
   id="path28"
   inkscape:connector-curvature="0"
   style="fill:#ffffff" />
			<path
   id="Shape_1_"
   d="m 787.6,-663.4 c 0,77.1 -54.4,122.5 -113.8,122.5 -35.6,0 -64.4,-16.7 -82,-40.4 v 99.2 c 0,9.2 -5.4,15.4 -21.3,15.4 -7.9,0 -15.5,-0.8 -19.2,-2.1 v -312.5 c 3.8,-0.8 11.3,-2.1 19.2,-2.1 15.9,0 21.3,5.8 21.3,15.4 v 22.5 c 17.2,-23.8 46.4,-40.4 82,-40.4 59.5,0 113.8,45.8 113.8,122.5 z m -40.9,0 c 0,-51.7 -34.3,-87.1 -80.7,-87.1 -31.4,0 -60.7,18.3 -74,44.6 v 85 c 13.4,26.7 42.2,44.6 74,44.6 46.3,0 80.7,-35.4 80.7,-87.1 z"
   inkscape:connector-curvature="0"
   style="fill:#ffffff" />
			<path
   d="m 826.5,-663.4 c 0,-70 51.9,-122.1 121.3,-122.1 69.9,0 121.7,52.1 121.7,122.1 0,69.6 -51.9,122.5 -121.7,122.5 -69.4,0 -121.3,-52.9 -121.3,-122.5 z m 202.1,0 c 0,-54.2 -36.4,-87.1 -80.7,-87.1 -43.9,0 -80.3,32.9 -80.3,87.1 0,53.3 36.4,87.5 80.3,87.5 44.3,-0.4 80.7,-34.2 80.7,-87.5 z"
   id="path31"
   inkscape:connector-curvature="0"
   style="fill:#ffffff" />
			<path
   d="m 1265.8,-763.8 c 0,16.2 -6.7,19.6 -23.8,19.6 -33.9,0 -62.7,15.8 -80.3,52.5 v 132.9 c 0,10 -5.4,15.4 -21.8,15.4 -6.7,0 -14.6,-0.8 -18.8,-2.1 v -235.8 c 3.8,-0.8 11.7,-2.1 18.8,-2.1 16.3,0 21.8,5.8 21.8,15.4 v 32.9 c 23,-35 58.1,-52.5 102.1,-46.7 0.3,3.4 2,10.9 2,18 z"
   id="path33"
   inkscape:connector-curvature="0"
   style="fill:#ffffff" />
			<path
   d="m 1443.1,-557.1 c -20.5,10 -44.3,16.2 -68.2,16.2 -46.9,0 -74.9,-27.5 -74.9,-73.3 v -202.5 c 0,-10.4 5.9,-17.1 21.8,-17.1 6.7,0 14.6,1.7 18.8,2.5 v 51.2 h 92 c 0.4,3.3 1.7,10.4 1.7,16.2 0,14.2 -5.9,19.2 -14.6,19.2 h -78.6 v 127.9 c 0,27.5 13,40.8 38.9,40.8 23.8,0 36.8,-10.4 48.1,-10.4 11.3,0 17.5,9.7 15,29.3 z"
   id="path35"
   inkscape:connector-curvature="0"
   style="fill:#ffffff" />
			<path
   d="m 1471.2,-557.1 c -2.9,-20.4 3.3,-31.2 15.5,-31.2 11.3,0 38.9,12.1 77.4,12.1 40.6,0 55.6,-14.2 55.6,-32.9 0,-13.3 -5.9,-25 -42.2,-35 l -41.8,-11.2 c -46.4,-12.1 -64.4,-35.4 -64.4,-63.8 0,-35.4 28,-66.7 91.6,-66.7 28.4,0 64,6.2 85.8,14.6 3.8,20 -2.5,30.8 -14.6,30.8 -10.9,0 -35.6,-10.4 -70.3,-10.4 -37.6,0 -51.5,12.9 -51.5,29.6 0,11.7 5.4,22.5 38.9,32.1 l 42.7,11.7 c 47.7,13.3 66.9,35.4 66.9,66.7 0,36.7 -28.4,69.6 -97.5,69.6 -31.1,0.2 -69.1,-7.3 -92.1,-16 z"
   id="path37"
   inkscape:connector-curvature="0"
   style="fill:#ffffff" />
		</g>
	</g>
</g>
</svg>